<svg width="80" height="80" viewBox="0 0 80 80" fill="none" xmlns="http://www.w3.org/2000/svg">
<circle cx="40" cy="40" r="40" fill="#DDE1E5"/>
<path fill-rule="evenodd" clip-rule="evenodd" d="M40.0001 24.6465C35.7586 24.6465 32.3233 28.0818 32.3233 32.3233C32.3233 36.5647 35.7586 40 40.0001 40C44.2415 40 47.6768 36.5647 47.6768 32.3233C47.6768 28.0818 44.2415 24.6465 40.0001 24.6465ZM43.8384 32.3232C43.8384 30.2121 42.1111 28.4849 40 28.4849C37.8889 28.4849 36.1616 30.2121 36.1616 32.3232C36.1616 34.4344 37.8889 36.1616 40 36.1616C42.1111 36.1616 43.8384 34.4344 43.8384 32.3232ZM51.5151 49.596C51.1313 48.2333 45.1818 45.7576 40 45.7576C34.8182 45.7576 28.8687 48.2333 28.4848 49.6152V51.5152H51.5151V49.596ZM24.6465 49.596C24.6465 44.4909 34.8758 41.9192 40 41.9192C45.1243 41.9192 55.3536 44.4909 55.3536 49.596V55.3536H24.6465V49.596Z" fill="#72787F"/>
</svg>
