<svg width="39" height="39" viewBox="0 0 39 39" fill="none" xmlns="http://www.w3.org/2000/svg">
<path d="M19.5 38.5C29.9934 38.5 38.5 29.9934 38.5 19.5C38.5 9.00659 29.9934 0.5 19.5 0.5C9.00659 0.5 0.5 9.00659 0.5 19.5C0.5 29.9934 9.00659 38.5 19.5 38.5Z" stroke="#72787F"/>
<path d="M12 13.8228V12.8819C12 12.4349 12.3583 12.0754 12.8036 12.0754H16.5536L16.8683 11.4469C17.0022 11.1714 17.2801 11 17.5848 11H21.4118C21.7165 11 21.9944 11.1714 22.1317 11.4469L22.4464 12.0754H26.1964C26.6417 12.0754 27 12.4349 27 12.8819V13.8228C27 14.0446 26.8192 14.2261 26.5982 14.2261H12.4018C12.1808 14.2261 12 14.0446 12 13.8228ZM25.9286 15.7047V26.5928C25.9286 27.4834 25.2087 28.2059 24.3214 28.2059H14.6786C13.7913 28.2059 13.0714 27.4834 13.0714 26.5928V15.7047C13.0714 15.4829 13.2522 15.3015 13.4732 15.3015H25.5268C25.7478 15.3015 25.9286 15.4829 25.9286 15.7047ZM16.8214 17.9899C16.8214 17.6942 16.5804 17.4522 16.2857 17.4522C15.9911 17.4522 15.75 17.6942 15.75 17.9899V25.5175C15.75 25.8132 15.9911 26.0551 16.2857 26.0551C16.5804 26.0551 16.8214 25.8132 16.8214 25.5175V17.9899ZM20.0357 17.9899C20.0357 17.6942 19.7946 17.4522 19.5 17.4522C19.2054 17.4522 18.9643 17.6942 18.9643 17.9899V25.5175C18.9643 25.8132 19.2054 26.0551 19.5 26.0551C19.7946 26.0551 20.0357 25.8132 20.0357 25.5175V17.9899ZM23.25 17.9899C23.25 17.6942 23.0089 17.4522 22.7143 17.4522C22.4196 17.4522 22.1786 17.6942 22.1786 17.9899V25.5175C22.1786 25.8132 22.4196 26.0551 22.7143 26.0551C23.0089 26.0551 23.25 25.8132 23.25 25.5175V17.9899Z" fill="#72787F"/>
</svg>
