<svg width="20" height="14" viewBox="0 0 20 14" fill="none" xmlns="http://www.w3.org/2000/svg">
<path fill-rule="evenodd" clip-rule="evenodd" d="M0.833252 7C2.27492 3.34167 5.83325 0.75 9.99992 0.75C14.1666 0.75 17.7249 3.34167 19.1666 7C17.7249 10.6583 14.1666 13.25 9.99992 13.25C5.83325 13.25 2.27492 10.6583 0.833252 7ZM17.3499 7C15.9749 4.19167 13.1582 2.41667 9.99991 2.41667C6.84158 2.41667 4.02491 4.19167 2.64991 7C4.02491 9.80833 6.84158 11.5833 9.99991 11.5833C13.1582 11.5833 15.9749 9.80833 17.3499 7ZM9.99992 4.91667C11.1499 4.91667 12.0833 5.85 12.0833 7C12.0833 8.15 11.1499 9.08333 9.99992 9.08333C8.84992 9.08333 7.91659 8.15 7.91659 7C7.91659 5.85 8.84992 4.91667 9.99992 4.91667ZM6.24992 7C6.24992 4.93333 7.93325 3.25 9.99992 3.25C12.0666 3.25 13.7499 4.93333 13.7499 7C13.7499 9.06667 12.0666 10.75 9.99992 10.75C7.93325 10.75 6.24992 9.06667 6.24992 7Z" fill="#72787F"/>
</svg>
