<svg width="9" height="14" viewBox="0 0 9 14" fill="none" xmlns="http://www.w3.org/2000/svg">
<path d="M0.756961 5.87463L8.24304 5.87463C8.91615 5.87463 9.25271 4.96381 8.77776 4.43279L5.03472 0.247877C4.73905 -0.0826225 4.26095 -0.0826225 3.96843 0.247877L0.222241 4.43279C-0.252708 4.96381 0.0838509 5.87463 0.756961 5.87463ZM8.77776 9.56717L5.03472 13.752C4.73905 14.0826 4.26095 14.0826 3.96843 13.752L0.222241 9.56717C-0.252708 9.03615 0.0838509 8.12533 0.756961 8.12533H8.24304C8.91615 8.12533 9.25271 9.03615 8.77776 9.56717Z" fill="#1E2631" fill-opacity="0.2"/>
<path d="M0.756085 8.12998H8.24295C8.91614 8.12998 9.25274 9.0401 8.77773 9.57068L5.03429 13.7522C4.73859 14.0826 4.26043 14.0826 3.96789 13.7522L0.224442 9.57068C-0.253715 9.0401 0.0828851 8.12998 0.756085 8.12998Z" fill="#1E2631"/>
</svg>
