<svg width="24" height="24" viewBox="0 0 24 24" fill="none" xmlns="http://www.w3.org/2000/svg">
<g clip-path="url(#clip0)">
<path d="M12 12.8438C9.67387 12.8438 7.78139 14.7363 7.78139 17.0625C7.78139 19.3887 9.67387 21.2812 12 21.2812C14.3262 21.2812 16.2187 19.3887 16.2187 17.0625C16.2187 14.7363 14.3262 12.8438 12 12.8438ZM12 19.4062C10.7077 19.4062 9.65634 18.3548 9.65634 17.0625C9.65634 15.7702 10.7077 14.7188 12 14.7188C13.2924 14.7188 14.3437 15.7702 14.3437 17.0625C14.3437 18.3548 13.2924 19.4062 12 19.4062Z" fill="#58626A"/>
<path d="M23.8992 14.8418C22.8652 12.7939 21.2266 11.059 19.1595 9.82242L21.6972 7.2847C22.0633 6.91861 22.0633 6.32503 21.6973 5.95889C21.3311 5.5928 20.7376 5.5928 20.3714 5.95889L17.3943 8.93606C15.9912 8.35533 14.4851 8.00602 12.9375 7.90547V3.65625C12.9375 3.13847 12.5178 2.71875 12 2.71875C11.4822 2.71875 11.0625 3.13847 11.0625 3.65625V7.90542C9.51492 8.00597 8.00882 8.35528 6.60567 8.93602L3.62859 5.95884C3.26245 5.5927 2.66883 5.5927 2.30273 5.95884C1.93669 6.32494 1.93669 6.91852 2.30278 7.28466L4.84045 9.82238C2.77336 11.059 1.1348 12.7939 0.100829 14.8418C-0.132514 15.304 0.0530169 15.8678 0.515204 16.1012C0.977251 16.3346 1.5413 16.1491 1.77459 15.6869C3.51356 12.2427 7.3889 9.75 12 9.75C16.6146 9.75 20.488 12.2457 22.2254 15.687C22.4592 16.1499 23.0233 16.3343 23.4848 16.1013C23.9471 15.8679 24.1326 15.304 23.8992 14.8418Z" fill="#58626A"/>
</g>
<defs>
<clipPath id="clip0">
<rect width="24" height="24" fill="white"/>
</clipPath>
</defs>
</svg>
