<svg width="24" height="24" viewBox="0 0 24 24" fill="none" xmlns="http://www.w3.org/2000/svg">
<g clip-path="url(#clip0)">
<path d="M23.8991 8.31149C22.8652 10.286 21.2266 11.9587 19.1595 13.151L21.6972 15.5977C22.0633 15.9507 22.0633 16.523 21.6972 16.876C21.3311 17.229 20.7376 17.229 20.3714 16.876L17.3943 14.0056C15.9911 14.5655 14.485 14.9023 12.9375 14.9992V19.0961C12.9375 19.5953 12.5178 20 12 20C11.4822 20 11.0625 19.5953 11.0625 19.0961V14.9993C9.51489 14.9023 8.0088 14.5655 6.60565 14.0056L3.62857 16.8761C3.26243 17.2291 2.6688 17.2291 2.30271 16.8761C1.93666 16.5231 1.93666 15.9508 2.30276 15.5978L4.84043 13.151C2.77334 11.9587 1.13477 10.286 0.100806 8.31154C-0.132537 7.86587 0.052994 7.32227 0.515181 7.09725C0.977228 6.87222 1.54127 7.05106 1.77457 7.49672C3.51354 10.8175 7.38888 13.2208 12 13.2208C16.6146 13.2208 20.488 10.8146 22.2254 7.49668C22.4592 7.05029 23.0233 6.87254 23.4848 7.0972C23.947 7.32223 24.1326 7.86587 23.8991 8.31149Z" fill="#838383"/>
</g>
<defs>
<clipPath id="clip0">
<rect width="24" height="24" fill="white"/>
</clipPath>
</defs>
</svg>
