<svg width="451" height="95" viewBox="0 0 451 95" fill="none" xmlns="http://www.w3.org/2000/svg">
<path d="M318.5 26H98.5C97.1193 26 96 27.1193 96 28.5C96 29.8807 97.1193 31 98.5 31H318.5C319.881 31 321 29.8807 321 28.5C321 27.1193 319.881 26 318.5 26Z" fill="#1E2631"/>
<path d="M57 56C72.464 56 85 43.464 85 28C85 12.536 72.464 0 57 0C41.536 0 29 12.536 29 28C29 43.464 41.536 56 57 56Z" fill="#1E2631"/>
<path d="M52.7268 33.1667L47.1668 27.6067L45.2734 29.4867L52.7268 36.9401L68.7268 20.9401L66.8468 19.0601L52.7268 33.1667Z" fill="white"/>
<path d="M357 56C372.464 56 385 43.464 385 28C385 12.536 372.464 0 357 0C341.536 0 329 12.536 329 28C329 43.464 341.536 56 357 56Z" fill="#1E2631"/>
<path d="M362.965 36H351.27V33.6797L356.789 27.7969C357.547 26.9688 358.105 26.2461 358.465 25.6289C358.832 25.0117 359.016 24.4258 359.016 23.8711C359.016 23.1133 358.824 22.5195 358.441 22.0898C358.059 21.6523 357.512 21.4336 356.801 21.4336C356.035 21.4336 355.43 21.6992 354.984 22.2305C354.547 22.7539 354.328 23.4453 354.328 24.3047H350.93C350.93 23.2656 351.176 22.3164 351.668 21.457C352.168 20.5977 352.871 19.9258 353.777 19.4414C354.684 18.9492 355.711 18.7031 356.859 18.7031C358.617 18.7031 359.98 19.125 360.949 19.9688C361.926 20.8125 362.414 22.0039 362.414 23.543C362.414 24.3867 362.195 25.2461 361.758 26.1211C361.32 26.9961 360.57 28.0156 359.508 29.1797L355.629 33.2695H362.965V36Z" fill="white"/>
<path d="M12.0215 83.2617C12.0215 84.6549 11.7806 85.8789 11.2988 86.9336C10.8171 87.9818 10.127 88.7891 9.22852 89.3555C8.33659 89.9154 7.30794 90.1953 6.14258 90.1953C4.99023 90.1953 3.96159 89.9154 3.05664 89.3555C2.1582 88.7891 1.46159 87.985 0.966797 86.9434C0.478516 85.9017 0.23112 84.7005 0.224609 83.3398V82.5391C0.224609 81.1523 0.46875 79.9284 0.957031 78.8672C1.45182 77.806 2.14518 76.9954 3.03711 76.4355C3.93555 75.8691 4.96419 75.5859 6.12305 75.5859C7.2819 75.5859 8.30729 75.8659 9.19922 76.4258C10.0977 76.9792 10.791 77.7799 11.2793 78.8281C11.7676 79.8698 12.015 81.084 12.0215 82.4707V83.2617ZM9.55078 82.5195C9.55078 80.944 9.2513 79.7363 8.65234 78.8965C8.0599 78.0566 7.2168 77.6367 6.12305 77.6367C5.05534 77.6367 4.21875 78.0566 3.61328 78.8965C3.01432 79.7298 2.70833 80.9115 2.69531 82.4414V83.2617C2.69531 84.8242 2.99805 86.0319 3.60352 86.8848C4.21549 87.7376 5.06185 88.1641 6.14258 88.1641C7.23633 88.1641 8.07617 87.7474 8.66211 86.9141C9.25456 86.0807 9.55078 84.8633 9.55078 83.2617V82.5195ZM19.7852 81.6016C19.4727 81.5495 19.1504 81.5234 18.8184 81.5234C17.7311 81.5234 16.9987 81.9401 16.6211 82.7734V90H14.248V79.4336H16.5137L16.5723 80.6152C17.1452 79.6973 17.9395 79.2383 18.9551 79.2383C19.2936 79.2383 19.5736 79.2839 19.7949 79.375L19.7852 81.6016ZM20.6445 84.6387C20.6445 83.0111 21.0221 81.7057 21.7773 80.7227C22.5326 79.7331 23.5449 79.2383 24.8145 79.2383C25.9342 79.2383 26.8392 79.6289 27.5293 80.4102V75H29.9023V90H27.7539L27.6367 88.9062C26.9271 89.7656 25.9798 90.1953 24.7949 90.1953C23.5579 90.1953 22.5553 89.6973 21.7871 88.7012C21.0254 87.7051 20.6445 86.3509 20.6445 84.6387ZM23.0176 84.8438C23.0176 85.918 23.2227 86.7578 23.6328 87.3633C24.0495 87.9622 24.6387 88.2617 25.4004 88.2617C26.3704 88.2617 27.0801 87.8288 27.5293 86.9629V82.4512C27.0931 81.6048 26.39 81.1816 25.4199 81.1816C24.6517 81.1816 24.0592 81.4876 23.6426 82.0996C23.2259 82.7051 23.0176 83.6198 23.0176 84.8438ZM37.0312 90.1953C35.5273 90.1953 34.3066 89.7233 33.3691 88.7793C32.4382 87.8288 31.9727 86.5658 31.9727 84.9902V84.6973C31.9727 83.6426 32.1745 82.7018 32.5781 81.875C32.9883 81.0417 33.5612 80.3939 34.2969 79.9316C35.0326 79.4694 35.8529 79.2383 36.7578 79.2383C38.1966 79.2383 39.3066 79.6973 40.0879 80.6152C40.8757 81.5332 41.2695 82.832 41.2695 84.5117V85.4688H34.3652C34.4368 86.3411 34.7266 87.0312 35.2344 87.5391C35.7487 88.0469 36.3932 88.3008 37.168 88.3008C38.2552 88.3008 39.1406 87.8613 39.8242 86.9824L41.1035 88.2031C40.6803 88.8346 40.1139 89.3262 39.4043 89.6777C38.7012 90.0228 37.9102 90.1953 37.0312 90.1953ZM36.748 81.1426C36.097 81.1426 35.5697 81.3704 35.166 81.8262C34.7689 82.2819 34.515 82.9167 34.4043 83.7305H38.9258V83.5547C38.8737 82.7604 38.6621 82.1615 38.291 81.7578C37.9199 81.3477 37.4056 81.1426 36.748 81.1426ZM48.6523 81.6016C48.3398 81.5495 48.0176 81.5234 47.6855 81.5234C46.5983 81.5234 45.8659 81.9401 45.4883 82.7734V90H43.1152V79.4336H45.3809L45.4395 80.6152C46.0124 79.6973 46.8066 79.2383 47.8223 79.2383C48.1608 79.2383 48.4408 79.2839 48.6621 79.375L48.6523 81.6016ZM55.3613 90V75.7812H59.5605C60.8171 75.7812 61.9303 76.0612 62.9004 76.6211C63.877 77.181 64.6322 77.9753 65.166 79.0039C65.6999 80.0326 65.9668 81.2109 65.9668 82.5391V83.252C65.9668 84.5996 65.6966 85.7845 65.1562 86.8066C64.6224 87.8288 63.8574 88.6165 62.8613 89.1699C61.8717 89.7233 60.7357 90 59.4531 90H55.3613ZM57.832 77.7734V88.0273H59.4434C60.7389 88.0273 61.7318 87.6237 62.4219 86.8164C63.1185 86.0026 63.4733 84.8372 63.4863 83.3203V82.5293C63.4863 80.9863 63.151 79.8079 62.4805 78.9941C61.8099 78.1803 60.8366 77.7734 59.5605 77.7734H57.832ZM72.8516 90.1953C71.3477 90.1953 70.127 89.7233 69.1895 88.7793C68.2585 87.8288 67.793 86.5658 67.793 84.9902V84.6973C67.793 83.6426 67.9948 82.7018 68.3984 81.875C68.8086 81.0417 69.3815 80.3939 70.1172 79.9316C70.8529 79.4694 71.6732 79.2383 72.5781 79.2383C74.0169 79.2383 75.127 79.6973 75.9082 80.6152C76.696 81.5332 77.0898 82.832 77.0898 84.5117V85.4688H70.1855C70.2572 86.3411 70.5469 87.0312 71.0547 87.5391C71.569 88.0469 72.2135 88.3008 72.9883 88.3008C74.0755 88.3008 74.9609 87.8613 75.6445 86.9824L76.9238 88.2031C76.5007 88.8346 75.9342 89.3262 75.2246 89.6777C74.5215 90.0228 73.7305 90.1953 72.8516 90.1953ZM72.5684 81.1426C71.9173 81.1426 71.39 81.3704 70.9863 81.8262C70.5892 82.2819 70.3353 82.9167 70.2246 83.7305H74.7461V83.5547C74.694 82.7604 74.4824 82.1615 74.1113 81.7578C73.7402 81.3477 73.2259 81.1426 72.5684 81.1426ZM81.9141 76.8652V79.4336H83.7793V81.1914H81.9141V87.0898C81.9141 87.4935 81.9922 87.7865 82.1484 87.9688C82.3112 88.1445 82.5977 88.2324 83.0078 88.2324C83.2812 88.2324 83.5579 88.1999 83.8379 88.1348V89.9707C83.2975 90.1204 82.7767 90.1953 82.2754 90.1953C80.4525 90.1953 79.541 89.1895 79.541 87.1777V81.1914H77.8027V79.4336H79.541V76.8652H81.9141ZM91.9141 90C91.8099 89.7982 91.7188 89.4694 91.6406 89.0137C90.8854 89.8014 89.9609 90.1953 88.8672 90.1953C87.806 90.1953 86.9401 89.8926 86.2695 89.2871C85.599 88.6816 85.2637 87.9329 85.2637 87.041C85.2637 85.9147 85.6803 85.0521 86.5137 84.4531C87.3535 83.8477 88.5514 83.5449 90.1074 83.5449H91.5625V82.8516C91.5625 82.3047 91.4095 81.8685 91.1035 81.543C90.7975 81.2109 90.332 81.0449 89.707 81.0449C89.1667 81.0449 88.724 81.1816 88.3789 81.4551C88.0339 81.722 87.8613 82.0638 87.8613 82.4805H85.4883C85.4883 81.901 85.6803 81.3607 86.0645 80.8594C86.4486 80.3516 86.9694 79.9544 87.627 79.668C88.291 79.3815 89.0299 79.2383 89.8438 79.2383C91.0807 79.2383 92.0671 79.5508 92.8027 80.1758C93.5384 80.7943 93.916 81.6667 93.9355 82.793V87.5586C93.9355 88.5091 94.069 89.2676 94.3359 89.834V90H91.9141ZM89.3066 88.291C89.7754 88.291 90.2148 88.1771 90.625 87.9492C91.0417 87.7214 91.3542 87.4154 91.5625 87.0312V85.0391H90.2832C89.4043 85.0391 88.7435 85.1921 88.3008 85.498C87.8581 85.804 87.6367 86.237 87.6367 86.7969C87.6367 87.2526 87.7865 87.6172 88.0859 87.8906C88.3919 88.1576 88.7988 88.291 89.3066 88.291ZM98.9453 90H96.5723V79.4336H98.9453V90ZM96.4258 76.6895C96.4258 76.3249 96.5397 76.0221 96.7676 75.7812C97.002 75.5404 97.334 75.4199 97.7637 75.4199C98.1934 75.4199 98.5254 75.5404 98.7598 75.7812C98.9941 76.0221 99.1113 76.3249 99.1113 76.6895C99.1113 77.0475 98.9941 77.347 98.7598 77.5879C98.5254 77.8223 98.1934 77.9395 97.7637 77.9395C97.334 77.9395 97.002 77.8223 96.7676 77.5879C96.5397 77.347 96.4258 77.0475 96.4258 76.6895ZM104.062 90H101.689V75H104.062V90ZM112.578 87.1289C112.578 86.7057 112.402 86.3835 112.051 86.1621C111.706 85.9408 111.13 85.7454 110.322 85.5762C109.515 85.4069 108.841 85.1921 108.301 84.9316C107.116 84.3587 106.523 83.5286 106.523 82.4414C106.523 81.5299 106.908 80.7682 107.676 80.1562C108.444 79.5443 109.421 79.2383 110.605 79.2383C111.868 79.2383 112.887 79.5508 113.662 80.1758C114.443 80.8008 114.834 81.6113 114.834 82.6074H112.461C112.461 82.1517 112.292 81.7741 111.953 81.4746C111.615 81.1686 111.165 81.0156 110.605 81.0156C110.085 81.0156 109.658 81.1361 109.326 81.377C109.001 81.6178 108.838 81.9401 108.838 82.3438C108.838 82.7083 108.991 82.9915 109.297 83.1934C109.603 83.3952 110.221 83.6003 111.152 83.8086C112.083 84.0104 112.812 84.2546 113.34 84.541C113.874 84.821 114.268 85.1595 114.521 85.5566C114.782 85.9538 114.912 86.4355 114.912 87.002C114.912 87.9525 114.518 88.724 113.73 89.3164C112.943 89.9023 111.911 90.1953 110.635 90.1953C109.769 90.1953 108.997 90.0391 108.32 89.7266C107.643 89.4141 107.116 88.9844 106.738 88.4375C106.361 87.8906 106.172 87.3014 106.172 86.6699H108.477C108.509 87.2298 108.721 87.6628 109.111 87.9688C109.502 88.2682 110.02 88.418 110.664 88.418C111.289 88.418 111.764 88.3008 112.09 88.0664C112.415 87.8255 112.578 87.513 112.578 87.1289Z" fill="#1E2631"/>
<path d="M270.332 82.5195L273.604 75.7812H276.338L271.572 84.7656V90H269.092V84.7656L264.316 75.7812H267.061L270.332 82.5195ZM276.562 84.6191C276.562 83.584 276.768 82.653 277.178 81.8262C277.588 80.9928 278.164 80.3548 278.906 79.9121C279.648 79.4629 280.501 79.2383 281.465 79.2383C282.891 79.2383 284.046 79.6973 284.932 80.6152C285.824 81.5332 286.305 82.7507 286.377 84.2676L286.387 84.8242C286.387 85.8659 286.185 86.7969 285.781 87.6172C285.384 88.4375 284.811 89.0723 284.062 89.5215C283.32 89.9707 282.461 90.1953 281.484 90.1953C279.993 90.1953 278.799 89.7005 277.9 88.7109C277.008 87.7148 276.562 86.39 276.562 84.7363V84.6191ZM278.936 84.8242C278.936 85.9115 279.16 86.7643 279.609 87.3828C280.059 87.9948 280.684 88.3008 281.484 88.3008C282.285 88.3008 282.907 87.9883 283.35 87.3633C283.799 86.7383 284.023 85.8236 284.023 84.6191C284.023 83.5514 283.792 82.7051 283.33 82.0801C282.874 81.4551 282.253 81.1426 281.465 81.1426C280.69 81.1426 280.075 81.4518 279.619 82.0703C279.163 82.6823 278.936 83.6003 278.936 84.8242ZM294.795 88.9648C294.098 89.7852 293.109 90.1953 291.826 90.1953C290.68 90.1953 289.811 89.86 289.219 89.1895C288.633 88.5189 288.34 87.5488 288.34 86.2793V79.4336H290.713V86.25C290.713 87.5911 291.27 88.2617 292.383 88.2617C293.535 88.2617 294.313 87.8483 294.717 87.0215V79.4336H297.09V90H294.854L294.795 88.9648ZM305.039 81.6016C304.727 81.5495 304.404 81.5234 304.072 81.5234C302.985 81.5234 302.253 81.9401 301.875 82.7734V90H299.502V79.4336H301.768L301.826 80.6152C302.399 79.6973 303.193 79.2383 304.209 79.2383C304.548 79.2383 304.827 79.2839 305.049 79.375L305.039 81.6016ZM323.096 83.2617C323.096 84.6549 322.855 85.8789 322.373 86.9336C321.891 87.9818 321.201 88.7891 320.303 89.3555C319.411 89.9154 318.382 90.1953 317.217 90.1953C316.064 90.1953 315.036 89.9154 314.131 89.3555C313.232 88.7891 312.536 87.985 312.041 86.9434C311.553 85.9017 311.305 84.7005 311.299 83.3398V82.5391C311.299 81.1523 311.543 79.9284 312.031 78.8672C312.526 77.806 313.219 76.9954 314.111 76.4355C315.01 75.8691 316.038 75.5859 317.197 75.5859C318.356 75.5859 319.382 75.8659 320.273 76.4258C321.172 76.9792 321.865 77.7799 322.354 78.8281C322.842 79.8698 323.089 81.084 323.096 82.4707V83.2617ZM320.625 82.5195C320.625 80.944 320.326 79.7363 319.727 78.8965C319.134 78.0566 318.291 77.6367 317.197 77.6367C316.13 77.6367 315.293 78.0566 314.688 78.8965C314.089 79.7298 313.783 80.9115 313.77 82.4414V83.2617C313.77 84.8242 314.072 86.0319 314.678 86.8848C315.29 87.7376 316.136 88.1641 317.217 88.1641C318.311 88.1641 319.15 87.7474 319.736 86.9141C320.329 86.0807 320.625 84.8633 320.625 83.2617V82.5195ZM330.859 81.6016C330.547 81.5495 330.225 81.5234 329.893 81.5234C328.805 81.5234 328.073 81.9401 327.695 82.7734V90H325.322V79.4336H327.588L327.646 80.6152C328.219 79.6973 329.014 79.2383 330.029 79.2383C330.368 79.2383 330.648 79.2839 330.869 79.375L330.859 81.6016ZM331.719 84.6387C331.719 83.0111 332.096 81.7057 332.852 80.7227C333.607 79.7331 334.619 79.2383 335.889 79.2383C337.008 79.2383 337.913 79.6289 338.604 80.4102V75H340.977V90H338.828L338.711 88.9062C338.001 89.7656 337.054 90.1953 335.869 90.1953C334.632 90.1953 333.63 89.6973 332.861 88.7012C332.1 87.7051 331.719 86.3509 331.719 84.6387ZM334.092 84.8438C334.092 85.918 334.297 86.7578 334.707 87.3633C335.124 87.9622 335.713 88.2617 336.475 88.2617C337.445 88.2617 338.154 87.8288 338.604 86.9629V82.4512C338.167 81.6048 337.464 81.1816 336.494 81.1816C335.726 81.1816 335.133 81.4876 334.717 82.0996C334.3 82.7051 334.092 83.6198 334.092 84.8438ZM348.105 90.1953C346.602 90.1953 345.381 89.7233 344.443 88.7793C343.512 87.8288 343.047 86.5658 343.047 84.9902V84.6973C343.047 83.6426 343.249 82.7018 343.652 81.875C344.062 81.0417 344.635 80.3939 345.371 79.9316C346.107 79.4694 346.927 79.2383 347.832 79.2383C349.271 79.2383 350.381 79.6973 351.162 80.6152C351.95 81.5332 352.344 82.832 352.344 84.5117V85.4688H345.439C345.511 86.3411 345.801 87.0312 346.309 87.5391C346.823 88.0469 347.467 88.3008 348.242 88.3008C349.329 88.3008 350.215 87.8613 350.898 86.9824L352.178 88.2031C351.755 88.8346 351.188 89.3262 350.479 89.6777C349.775 90.0228 348.984 90.1953 348.105 90.1953ZM347.822 81.1426C347.171 81.1426 346.644 81.3704 346.24 81.8262C345.843 82.2819 345.589 82.9167 345.479 83.7305H350V83.5547C349.948 82.7604 349.736 82.1615 349.365 81.7578C348.994 81.3477 348.48 81.1426 347.822 81.1426ZM359.727 81.6016C359.414 81.5495 359.092 81.5234 358.76 81.5234C357.673 81.5234 356.94 81.9401 356.562 82.7734V90H354.189V79.4336H356.455L356.514 80.6152C357.087 79.6973 357.881 79.2383 358.896 79.2383C359.235 79.2383 359.515 79.2839 359.736 79.375L359.727 81.6016ZM373.867 86.3379C373.867 85.7129 373.646 85.2311 373.203 84.8926C372.767 84.554 371.976 84.2122 370.83 83.8672C369.684 83.5221 368.773 83.138 368.096 82.7148C366.8 81.901 366.152 80.8398 366.152 79.5312C366.152 78.3854 366.618 77.4414 367.549 76.6992C368.486 75.957 369.701 75.5859 371.191 75.5859C372.181 75.5859 373.063 75.7682 373.838 76.1328C374.613 76.4974 375.221 77.0182 375.664 77.6953C376.107 78.3659 376.328 79.1113 376.328 79.9316H373.867C373.867 79.1895 373.633 78.61 373.164 78.1934C372.702 77.7702 372.038 77.5586 371.172 77.5586C370.365 77.5586 369.736 77.7311 369.287 78.0762C368.844 78.4212 368.623 78.903 368.623 79.5215C368.623 80.0423 368.864 80.4785 369.346 80.8301C369.827 81.1751 370.622 81.5137 371.729 81.8457C372.835 82.1712 373.724 82.5456 374.395 82.9688C375.065 83.3854 375.557 83.8672 375.869 84.4141C376.182 84.9544 376.338 85.5892 376.338 86.3184C376.338 87.5033 375.882 88.4473 374.971 89.1504C374.066 89.847 372.835 90.1953 371.279 90.1953C370.251 90.1953 369.303 90.0065 368.438 89.6289C367.578 89.2448 366.908 88.7174 366.426 88.0469C365.951 87.3763 365.713 86.5951 365.713 85.7031H368.184C368.184 86.5104 368.451 87.1354 368.984 87.5781C369.518 88.0208 370.283 88.2422 371.279 88.2422C372.139 88.2422 372.783 88.0697 373.213 87.7246C373.649 87.373 373.867 86.9108 373.867 86.3379ZM384.678 88.9648C383.981 89.7852 382.992 90.1953 381.709 90.1953C380.563 90.1953 379.694 89.86 379.102 89.1895C378.516 88.5189 378.223 87.5488 378.223 86.2793V79.4336H380.596V86.25C380.596 87.5911 381.152 88.2617 382.266 88.2617C383.418 88.2617 384.196 87.8483 384.6 87.0215V79.4336H386.973V90H384.736L384.678 88.9648ZM391.621 79.4336L391.689 80.5371C392.432 79.6712 393.447 79.2383 394.736 79.2383C396.149 79.2383 397.116 79.7786 397.637 80.8594C398.405 79.7786 399.486 79.2383 400.879 79.2383C402.044 79.2383 402.91 79.5605 403.477 80.2051C404.049 80.8496 404.342 81.8001 404.355 83.0566V90H401.982V83.125C401.982 82.4544 401.836 81.9629 401.543 81.6504C401.25 81.3379 400.765 81.1816 400.088 81.1816C399.548 81.1816 399.105 81.3281 398.76 81.6211C398.421 81.9076 398.184 82.2852 398.047 82.7539L398.057 90H395.684V83.0469C395.651 81.8034 395.016 81.1816 393.779 81.1816C392.829 81.1816 392.155 81.569 391.758 82.3438V90H389.385V79.4336H391.621ZM409.023 79.4336L409.092 80.5371C409.834 79.6712 410.85 79.2383 412.139 79.2383C413.551 79.2383 414.518 79.7786 415.039 80.8594C415.807 79.7786 416.888 79.2383 418.281 79.2383C419.447 79.2383 420.312 79.5605 420.879 80.2051C421.452 80.8496 421.745 81.8001 421.758 83.0566V90H419.385V83.125C419.385 82.4544 419.238 81.9629 418.945 81.6504C418.652 81.3379 418.167 81.1816 417.49 81.1816C416.95 81.1816 416.507 81.3281 416.162 81.6211C415.824 81.9076 415.586 82.2852 415.449 82.7539L415.459 90H413.086V83.0469C413.053 81.8034 412.419 81.1816 411.182 81.1816C410.231 81.1816 409.557 81.569 409.16 82.3438V90H406.787V79.4336H409.023ZM430.508 90C430.404 89.7982 430.312 89.4694 430.234 89.0137C429.479 89.8014 428.555 90.1953 427.461 90.1953C426.4 90.1953 425.534 89.8926 424.863 89.2871C424.193 88.6816 423.857 87.9329 423.857 87.041C423.857 85.9147 424.274 85.0521 425.107 84.4531C425.947 83.8477 427.145 83.5449 428.701 83.5449H430.156V82.8516C430.156 82.3047 430.003 81.8685 429.697 81.543C429.391 81.2109 428.926 81.0449 428.301 81.0449C427.76 81.0449 427.318 81.1816 426.973 81.4551C426.628 81.722 426.455 82.0638 426.455 82.4805H424.082C424.082 81.901 424.274 81.3607 424.658 80.8594C425.042 80.3516 425.563 79.9544 426.221 79.668C426.885 79.3815 427.624 79.2383 428.438 79.2383C429.674 79.2383 430.661 79.5508 431.396 80.1758C432.132 80.7943 432.51 81.6667 432.529 82.793V87.5586C432.529 88.5091 432.663 89.2676 432.93 89.834V90H430.508ZM427.9 88.291C428.369 88.291 428.809 88.1771 429.219 87.9492C429.635 87.7214 429.948 87.4154 430.156 87.0312V85.0391H428.877C427.998 85.0391 427.337 85.1921 426.895 85.498C426.452 85.804 426.23 86.237 426.23 86.7969C426.23 87.2526 426.38 87.6172 426.68 87.8906C426.986 88.1576 427.393 88.291 427.9 88.291ZM440.547 81.6016C440.234 81.5495 439.912 81.5234 439.58 81.5234C438.493 81.5234 437.76 81.9401 437.383 82.7734V90H435.01V79.4336H437.275L437.334 80.6152C437.907 79.6973 438.701 79.2383 439.717 79.2383C440.055 79.2383 440.335 79.2839 440.557 79.375L440.547 81.6016ZM445.918 86.6016L448.066 79.4336H450.596L446.396 91.6016C445.752 93.3789 444.658 94.2676 443.115 94.2676C442.77 94.2676 442.389 94.209 441.973 94.0918V92.2559L442.422 92.2852C443.021 92.2852 443.47 92.1745 443.77 91.9531C444.076 91.7383 444.316 91.3737 444.492 90.8594L444.834 89.9512L441.123 79.4336H443.682L445.918 86.6016Z" fill="#1E2631"/>
</svg>
