<svg width="22" height="25" viewBox="0 0 22 25" fill="none" xmlns="http://www.w3.org/2000/svg">
<path d="M14.5 0.166748H7.5V2.50008H14.5V0.166748ZM9.83333 15.3334H12.1667V8.33341H9.83333V15.3334ZM19.2017 7.62175L20.8583 5.96508C20.3567 5.37008 19.8083 4.81008 19.2133 4.32008L17.5567 5.97675C15.6986 4.48146 13.3851 3.66639 11 3.66675C5.20167 3.66675 0.5 8.36841 0.5 14.1667C0.5 19.9651 5.19 24.6667 11 24.6667C12.9767 24.6678 14.9135 24.1105 16.5873 23.059C18.2611 22.0076 19.6039 20.5047 20.461 18.7234C21.3181 16.9422 21.6546 14.9551 21.4318 12.991C21.209 11.0269 20.4359 9.16573 19.2017 7.62175ZM11 22.3334C6.485 22.3334 2.83333 18.6817 2.83333 14.1667C2.83333 9.65175 6.485 6.00008 11 6.00008C15.515 6.00008 19.1667 9.65175 19.1667 14.1667C19.1667 18.6817 15.515 22.3334 11 22.3334Z" fill="white"/>
</svg>
