<svg width="24" height="25" viewBox="0 0 24 25" fill="none" xmlns="http://www.w3.org/2000/svg">
<path fill-rule="evenodd" clip-rule="evenodd" d="M11.9885 0.468018C5.5485 0.468018 0.333496 5.74053 0.333496 12.237C0.333496 18.7335 5.5485 24.006 11.9885 24.006C18.4402 24.006 23.6668 18.7335 23.6668 12.237C23.6668 5.74053 18.4402 0.468018 11.9885 0.468018ZM13.1668 13.4139V6.35252H10.8335V13.4139H13.1668ZM13.1668 18.1215V15.7677H10.8335V18.1215H13.1668ZM2.66683 12.237C2.66683 17.4389 6.8435 21.6522 12.0002 21.6522C17.1568 21.6522 21.3335 17.4389 21.3335 12.237C21.3335 7.03512 17.1568 2.82182 12.0002 2.82182C6.8435 2.82182 2.66683 7.03512 2.66683 12.237Z" fill="#494A4B"/>
</svg>
