<svg width="9" height="14" viewBox="0 0 9 14" fill="none" xmlns="http://www.w3.org/2000/svg">
<path d="M8.24304 8.12535H0.756964C0.0838462 8.12535 -0.252712 9.03617 0.222244 9.56719L3.96528 13.7521C4.26095 14.0826 4.73905 14.0826 5.03157 13.7521L8.77776 9.56719C9.25271 9.03617 8.91615 8.12535 8.24304 8.12535ZM0.222244 4.43281L3.96528 0.247928C4.26095 -0.0826426 4.73905 -0.0826426 5.03157 0.247928L8.77776 4.43281C9.25271 4.96383 8.91615 5.87465 8.24304 5.87465H0.756964C0.0838462 5.87465 -0.252712 4.96383 0.222244 4.43281Z" fill="#1E2631" fill-opacity="0.2"/>
<path d="M8.24391 5.87H0.757046C0.0838555 5.87 -0.252739 4.95988 0.222269 4.42929L3.96571 0.247731C4.26141 -0.082577 4.73957 -0.082577 5.03211 0.247731L8.77556 4.42929C9.25371 4.95988 8.91711 5.87 8.24391 5.87Z" fill="#1E2631"/>
</svg>
