<svg width="20" height="20" viewBox="0 0 20 20" fill="none" xmlns="http://www.w3.org/2000/svg">
<g clip-path="url(#clip0)">
<path d="M14.0888 4.29219C14.5752 3.65912 14.5751 3.08031 14.5751 2.41851V2.41018C14.5751 2.18373 14.3915 2.00002 14.165 2.00002H14.1339C13.5007 1.99991 12.9465 1.99981 12.3284 2.45311C11.2805 2.16237 10.0588 2.00216 8.86104 2.00002C7.64147 1.99799 6.40064 2.15821 5.33754 2.45311C4.71943 1.99981 4.1655 2.00034 3.532 2.00002H3.50092C3.27448 2.00002 3.09076 2.18363 3.09076 2.41018V2.41851C3.09076 3.08031 3.09076 3.65912 3.57718 4.29219C3.16478 6.12978 2.9815 7.71326 3.00147 9.2601C3.0192 10.6411 3.19725 12.0203 3.57708 13.7078C3.09076 14.3409 3.09076 14.9197 3.09076 15.5815V15.5899C3.09076 15.8163 3.27448 16 3.50092 16H3.53147C4.16486 16.0001 4.71996 16.0002 5.33851 15.5462C6.39818 15.8397 7.63036 16 8.83733 16C8.84523 16 8.85314 16 8.86104 16C10.0544 15.9979 11.2759 15.8375 12.3274 15.5462C12.9459 16.0002 13.5013 15.9999 14.1344 16H14.165C14.3915 16 14.5751 15.8163 14.5751 15.5899V15.5815C14.5751 14.9197 14.5751 14.3409 14.0888 13.7078C14.4663 12.0311 14.6444 10.6631 14.6644 9.29663C14.6873 7.73783 14.504 6.1426 14.0888 4.29219ZM13.338 14.0871C13.6613 14.4488 13.7338 14.7496 13.7501 15.1755C13.3368 15.1605 13.0441 15.0922 12.6848 14.7828C12.5786 14.6914 12.4332 14.6605 12.2992 14.7007C11.2768 15.0075 10.0552 15.1776 8.85955 15.1797C7.64382 15.1825 6.4031 15.0117 5.3667 14.7007C5.32793 14.689 5.2882 14.6834 5.24889 14.6834C5.1518 14.6834 5.05652 14.7177 4.98111 14.7828C4.62169 15.0923 4.32924 15.1605 3.91578 15.1755C3.93212 14.7496 4.00464 14.4488 4.32775 14.0871C4.41661 13.9877 4.45154 13.8513 4.42153 13.7215C3.73056 10.7312 3.50904 8.22745 4.42153 4.27852C4.45154 4.14864 4.41661 4.01235 4.32775 3.91291C4.00464 3.55124 3.93212 3.25046 3.91578 2.8245C4.32892 2.83945 4.62127 2.9076 4.98058 3.21682C5.08675 3.30814 5.23223 3.33901 5.36628 3.29863C6.39829 2.98813 7.6388 2.8182 8.85955 2.82033C10.0599 2.82247 11.2816 2.9923 12.2996 3.29863C12.4337 3.33901 12.5792 3.30814 12.6853 3.21682C13.0446 2.9076 13.337 2.83945 13.7501 2.8245C13.7338 3.25046 13.6613 3.55124 13.338 3.91291C13.2493 4.01235 13.2143 4.14875 13.2443 4.27852C14.1568 8.22745 13.9352 10.7311 13.2443 13.7215C13.2144 13.8514 13.2493 13.9877 13.338 14.0871Z" fill="#1E2631"/>
<path d="M11.7041 5.69141C11.7041 5.46486 11.5205 5.28125 11.2939 5.28125C10.4914 5.28125 9.76473 5.61247 9.24317 6.14525V5.69141C9.24317 5.46486 9.05956 5.28125 8.83301 5.28125C8.60646 5.28125 8.42285 5.46486 8.42285 5.69141V6.14525C7.9014 5.61247 7.17476 5.28125 6.37207 5.28125C6.14563 5.28125 5.96191 5.46486 5.96191 5.69141C5.96191 7.13528 7.03334 8.3335 8.42285 8.53313V9.4265C7.9014 8.89372 7.17476 8.5625 6.37207 8.5625C6.14563 8.5625 5.96191 8.74611 5.96191 8.97266C5.96191 10.4165 7.03334 11.6147 8.42285 11.8144V13.1016C8.42285 13.3281 8.60646 13.5117 8.83301 13.5117C9.05956 13.5117 9.24317 13.3281 9.24317 13.1016V11.8144C10.6327 11.6147 11.7041 10.4165 11.7041 8.97266C11.7041 8.74611 11.5205 8.5625 11.2939 8.5625C10.4914 8.5625 9.76473 8.89372 9.24317 9.4265V8.53313C10.6327 8.3335 11.7041 7.13528 11.7041 5.69141ZM10.8311 6.15422C10.6552 6.91418 10.0558 7.51361 9.29582 7.68953C9.47174 6.92967 10.0713 6.33014 10.8311 6.15422ZM6.83489 6.15422C7.59474 6.33014 8.19428 6.92967 8.37019 7.68953C7.61034 7.51361 7.0108 6.91418 6.83489 6.15422ZM6.83489 9.43547C7.59474 9.61139 8.19428 10.2109 8.37019 10.9708C7.61034 10.7949 7.0108 10.1954 6.83489 9.43547ZM10.8311 9.43547C10.6552 10.1954 10.0558 10.7949 9.29582 10.9708C9.47174 10.2109 10.0713 9.61139 10.8311 9.43547Z" fill="#1E2631"/>
<circle cx="11.7312" cy="16.3988" r="2.07645" fill="white"/>
<circle cx="15.0535" cy="15.5682" r="2.07645" fill="white"/>
<path d="M15.2222 13.2909C14.6117 13.3492 14.0607 13.6416 13.6702 14.1145C13.5859 14.2165 13.5114 14.3242 13.4469 14.4366C13.4011 14.3999 13.3533 14.3646 13.3038 14.331C12.2568 13.6193 10.8261 13.892 10.1146 14.9389C9.40307 15.9858 9.67603 17.4164 10.7231 18.128C11.7701 18.8397 13.2008 18.567 13.9123 17.5201C13.9462 17.4703 13.9779 17.4195 14.0073 17.368C14.4571 17.7278 15.0416 17.9205 15.6591 17.8615C16.3663 17.7941 16.9686 17.4107 17.3397 16.8647C17.63 16.4377 17.7789 15.9111 17.7261 15.3583C17.6677 14.7478 17.3752 14.1966 16.9023 13.8061C16.4293 13.4156 15.8327 13.2327 15.2222 13.2909ZM10.4567 15.1715C11.0008 14.371 12.0576 14.1226 12.8939 14.5662L10.7909 17.6603C10.0707 17.046 9.91269 15.9719 10.4567 15.1715ZM13.2361 14.7987C13.2473 14.8082 13.2583 14.8178 13.2691 14.8277C13.3961 14.9412 13.5048 15.0694 13.594 15.2078C13.8586 15.6182 13.9541 16.1192 13.8593 16.5982C13.8273 16.7592 13.7739 16.9176 13.698 17.0692C13.6609 17.1439 13.6183 17.2168 13.5702 17.2876C13.0261 18.088 11.9693 18.3364 11.133 17.8929L13.2361 14.7987ZM14.2424 17.0274C14.2225 17.0112 14.2033 16.9946 14.1844 16.9776C14.4485 16.21 14.2846 15.3511 13.7561 14.7349C13.7931 14.6614 13.835 14.5898 13.8819 14.5208C13.9151 14.4719 13.951 14.4241 13.9891 14.3778C14.2648 14.044 14.6385 13.8198 15.0567 13.7335L15.4128 17.4583C14.9856 17.4527 14.5763 17.3031 14.2424 17.0274ZM16.6388 14.125C17.0265 14.4452 17.2664 14.8971 17.3142 15.3975C17.3576 15.8508 17.2356 16.2825 16.9976 16.6325C16.7298 17.0264 16.3152 17.317 15.8245 17.4188L15.4685 13.6941C15.8955 13.6998 16.3048 13.8493 16.6388 14.125Z" fill="#1E2631"/>
</g>
<defs>
<clipPath id="clip0">
<rect width="20" height="20" fill="white"/>
</clipPath>
</defs>
</svg>
