<svg width="20" height="20" viewBox="0 0 20 20" fill="none" xmlns="http://www.w3.org/2000/svg">
<path fill-rule="evenodd" clip-rule="evenodd" d="M12.35 3.33332H15.8333C16.75 3.33332 17.5 4.08332 17.5 4.99999V16.6667C17.5 17.5833 16.75 18.3333 15.8333 18.3333H4.16667C4.05 18.3333 3.94167 18.325 3.83333 18.3083C3.50833 18.2417 3.21667 18.075 2.99167 17.85C2.84167 17.6917 2.71667 17.5167 2.63333 17.3167C2.55 17.1167 2.5 16.8917 2.5 16.6667V4.99999C2.5 4.76666 2.55 4.54999 2.63333 4.35832C2.71667 4.15832 2.84167 3.97499 2.99167 3.82499C3.21667 3.59999 3.50833 3.43332 3.83333 3.36666C3.94167 3.34166 4.05 3.33332 4.16667 3.33332H7.65C8 2.36666 8.91667 1.66666 10 1.66666C11.0833 1.66666 12 2.36666 12.35 3.33332ZM5.83333 6.66666H14.1667V8.33332H5.83333V6.66666ZM14.1667 9.99999H5.83333V11.6667H14.1667V9.99999ZM11.6667 13.3333H5.83333V15H11.6667V13.3333ZM10 3.12499C10.3417 3.12499 10.625 3.40832 10.625 3.74999C10.625 4.09166 10.3417 4.37499 10 4.37499C9.65833 4.37499 9.375 4.09166 9.375 3.74999C9.375 3.40832 9.65833 3.12499 10 3.12499ZM4.16667 16.6667H15.8333V4.99999H4.16667V16.6667Z" fill="#1E2631"/>
</svg>
