<svg width="18" height="18" viewBox="0 0 18 18" fill="none" xmlns="http://www.w3.org/2000/svg">
<g clip-path="url(#clip0)">
<path d="M17.9244 6.23362C17.1489 7.7145 15.92 8.96902 14.3696 9.86323L16.2729 11.6983C16.5475 11.963 16.5475 12.3922 16.2729 12.657C15.9983 12.9217 15.5532 12.9217 15.2785 12.657L13.0457 10.5042C11.9934 10.9241 10.8638 11.1767 9.7031 11.2494V14.3221C9.7031 14.6965 9.38831 15 8.99998 15C8.61164 15 8.29685 14.6965 8.29685 14.3221V11.2494C7.13617 11.1767 6.0066 10.9241 4.95423 10.5042L2.72143 12.657C2.44682 12.9218 2.0016 12.9218 1.72703 12.657C1.4525 12.3923 1.4525 11.9631 1.72707 11.6983L3.63032 9.86327C2.08 8.96906 0.851081 7.71453 0.0756048 6.23365C-0.0994029 5.8994 0.0397455 5.4917 0.386386 5.32294C0.732921 5.15417 1.15596 5.28829 1.33093 5.62254C2.63515 8.11312 5.54166 9.9156 9.00001 9.9156C12.461 9.9156 15.366 8.11095 16.6691 5.62251C16.8444 5.28772 17.2675 5.15441 17.6136 5.3229C17.9603 5.49167 18.0994 5.8994 17.9244 6.23362Z" fill="#838383"/>
</g>
<defs>
<clipPath id="clip0">
<rect width="18" height="18" fill="white"/>
</clipPath>
</defs>
</svg>
