<svg width="24" height="20" viewBox="0 0 24 20" fill="none" xmlns="http://www.w3.org/2000/svg">
<path d="M12.0001 10.8438C9.67389 10.8438 7.7814 12.7363 7.7814 15.0625C7.7814 17.3887 9.67389 19.2812 12.0001 19.2812C14.3262 19.2812 16.2187 17.3887 16.2187 15.0625C16.2187 12.7363 14.3262 10.8438 12.0001 10.8438ZM12.0001 17.4062C10.7077 17.4062 9.65636 16.3548 9.65636 15.0625C9.65636 13.7702 10.7077 12.7188 12.0001 12.7188C13.2924 12.7188 14.3438 13.7702 14.3438 15.0625C14.3438 16.3548 13.2924 17.4062 12.0001 17.4062Z" fill="#72787F"/>
<path d="M23.8992 12.8418C22.8652 10.7939 21.2266 9.05903 19.1595 7.82242L21.6972 5.2847C22.0633 4.91861 22.0633 4.32503 21.6973 3.95889C21.3311 3.5928 20.7376 3.5928 20.3714 3.95889L17.3943 6.93606C15.9912 6.35533 14.4851 6.00602 12.9375 5.90547V1.65625C12.9375 1.13847 12.5178 0.71875 12 0.71875C11.4822 0.71875 11.0625 1.13847 11.0625 1.65625V5.90542C9.51492 6.00597 8.00883 6.35528 6.60568 6.93602L3.6286 3.95884C3.26246 3.5927 2.66884 3.5927 2.30274 3.95884C1.93669 4.32494 1.93669 4.91852 2.30279 5.28466L4.84046 7.82238C2.77337 9.05898 1.1348 10.7939 0.100837 12.8418C-0.132507 13.304 0.0530245 13.8678 0.515212 14.1012C0.977258 14.3346 1.5413 14.1491 1.7746 13.6869C3.51357 10.2427 7.38891 7.75 12 7.75C16.6147 7.75 20.488 10.2457 22.2254 13.687C22.4592 14.1499 23.0234 14.3343 23.4848 14.1013C23.9471 13.8679 24.1326 13.304 23.8992 12.8418Z" fill="#72787F"/>
</svg>
