<svg width="20" height="20" viewBox="0 0 20 20" fill="none" xmlns="http://www.w3.org/2000/svg">
<path d="M12.8058 9.36021H7.19155C6.83951 9.36021 6.55176 9.07246 6.55176 8.72042V3.1398C6.55176 2.78776 6.83951 2.5 7.19155 2.5H12.8089C13.1609 2.5 13.4487 2.78776 13.4487 3.1398V8.75715C13.4456 9.07552 13.1579 9.36021 12.8058 9.36021ZM7.79768 8.11735H12.1691V3.74592H7.79768V8.11735Z" fill="#1E2631"/>
<path d="M8.75262 17.5H3.13833C2.78629 17.5 2.49854 17.2123 2.49854 16.8602V11.2459C2.49854 10.8939 2.78629 10.6061 3.13833 10.6061H8.75568C9.10773 10.6061 9.39548 10.8939 9.39548 11.2459V16.8633C9.35875 17.2123 9.10466 17.5 8.75262 17.5ZM3.74445 16.2541H8.11589V11.8827H3.74445V16.2541Z" fill="#1E2631"/>
<path d="M16.8588 17.5H11.2445C10.8925 17.5 10.6047 17.2123 10.6047 16.8602V11.2459C10.6047 10.8939 10.8925 10.6061 11.2445 10.6061H16.8619C17.2139 10.6061 17.5017 10.8939 17.5017 11.2459V16.8633C17.4986 17.2123 17.2109 17.5 16.8588 17.5ZM11.8813 16.2541H16.2527V11.8827H11.8813V16.2541Z" fill="#1E2631"/>
</svg>
