<svg width="14" height="18" viewBox="0 0 14 18" fill="none" xmlns="http://www.w3.org/2000/svg">
<path fill-rule="evenodd" clip-rule="evenodd" d="M11.1668 6.08333H12.0002C12.9168 6.08333 13.6668 6.83333 13.6668 7.75V16.0833C13.6668 17 12.9168 17.75 12.0002 17.75H2.00016C1.0835 17.75 0.333496 17 0.333496 16.0833V7.75C0.333496 6.83333 1.0835 6.08333 2.00016 6.08333H2.8335V4.41667C2.8335 2.11667 4.70016 0.25 7.00016 0.25C9.30016 0.25 11.1668 2.11667 11.1668 4.41667V6.08333ZM7.00016 1.91667C5.61683 1.91667 4.50016 3.03333 4.50016 4.41667V6.08333H9.50016V4.41667C9.50016 3.03333 8.3835 1.91667 7.00016 1.91667ZM2.00016 16.0833V7.75H12.0002V16.0833H2.00016ZM8.66683 11.9167C8.66683 12.8333 7.91683 13.5833 7.00016 13.5833C6.0835 13.5833 5.3335 12.8333 5.3335 11.9167C5.3335 11 6.0835 10.25 7.00016 10.25C7.91683 10.25 8.66683 11 8.66683 11.9167Z" fill="white"/>
</svg>
