<svg width="20" height="20" viewBox="0 0 20 20" fill="none" xmlns="http://www.w3.org/2000/svg">
<path fill-rule="evenodd" clip-rule="evenodd" d="M17.8417 9.65001L10.3417 2.15001C10.0417 1.85001 9.62508 1.66667 9.16675 1.66667H3.33341C2.41675 1.66667 1.66675 2.41667 1.66675 3.33334V9.16667C1.66675 9.62501 1.85008 10.0417 2.15841 10.35L9.65842 17.85C9.95842 18.15 10.3751 18.3333 10.8334 18.3333C11.2917 18.3333 11.7084 18.15 12.0084 17.8417L17.8417 12.0083C18.1501 11.7083 18.3334 11.2917 18.3334 10.8333C18.3334 10.375 18.1417 9.95001 17.8417 9.65001ZM10.8334 16.675L3.33341 9.16667V3.33334H9.16675V3.32501L16.6667 10.825L10.8334 16.675ZM4.16675 5.41667C4.16675 4.72632 4.72639 4.16667 5.41675 4.16667C6.1071 4.16667 6.66675 4.72632 6.66675 5.41667C6.66675 6.10703 6.1071 6.66667 5.41675 6.66667C4.72639 6.66667 4.16675 6.10703 4.16675 5.41667Z" fill="#1E2631"/>
</svg>
