<svg width="20" height="14" viewBox="0 0 20 14" fill="none" xmlns="http://www.w3.org/2000/svg">
<path fill-rule="evenodd" clip-rule="evenodd" d="M0.833374 7C2.27504 3.34167 5.83337 0.75 10 0.75C14.1667 0.75 17.725 3.34167 19.1667 7C17.725 10.6583 14.1667 13.25 10 13.25C5.83337 13.25 2.27504 10.6583 0.833374 7ZM17.35 7C15.975 4.19167 13.1584 2.41667 10 2.41667C6.84171 2.41667 4.02504 4.19167 2.65004 7C4.02504 9.80833 6.83337 11.5833 10 11.5833C13.1667 11.5833 15.975 9.80833 17.35 7ZM10 4.91667C11.15 4.91667 12.0834 5.85 12.0834 7C12.0834 8.15 11.15 9.08333 10 9.08333C8.85004 9.08333 7.91671 8.15 7.91671 7C7.91671 5.85 8.85004 4.91667 10 4.91667ZM6.25004 7C6.25004 4.93333 7.93337 3.25 10 3.25C12.0667 3.25 13.75 4.93333 13.75 7C13.75 9.06667 12.0667 10.75 10 10.75C7.93337 10.75 6.25004 9.06667 6.25004 7Z" fill="#1E2631"/>
</svg>
